<svg width="133" height="94" viewBox="0 0 133 94" fill="none" xmlns="http://www.w3.org/2000/svg">
<path d="M71.869 39.9027H69.7846V26.6461H22.0109V44.3216H47.6903V35.3171H49.7747V55.2437H47.6903V46.2392H22.0109V66.0824H69.868V52.7424H71.869V68H4.66898V66.0824H19.9266V26.6461H4.66898V24.6452H71.869V39.9027Z" fill="#5DB646"/>
<path d="M41.4395 38.0191V35.4395H55.1973V38.0191" stroke="#5DB646" stroke-linecap="round" stroke-linejoin="round"/>
<path d="M53.5779 55.0677C53.1719 55.0677 52.8111 54.991 52.4953 54.8376C52.1796 54.6797 51.9315 54.4655 51.751 54.1948C51.5751 53.9242 51.4872 53.6129 51.4872 53.2611C51.4872 52.9724 51.539 52.713 51.6428 52.483C51.7465 52.2529 51.8886 52.0545 52.0691 51.8876C52.254 51.7207 52.4705 51.5921 52.7186 51.5019C52.9667 51.4117 53.2328 51.3666 53.517 51.3666C53.7741 51.3666 54.0132 51.4094 54.2342 51.4951C54.4598 51.5808 54.656 51.7004 54.8229 51.8537C54.9898 52.0071 55.1183 52.1898 55.2086 52.4018C55.3033 52.6093 55.3484 52.8393 55.3439 53.0919L55.3371 53.4167H52.0555L51.8999 52.8619H54.7349L54.6334 52.9499V52.7875C54.6154 52.6386 54.5522 52.5055 54.444 52.3883C54.3357 52.271 54.2004 52.1785 54.038 52.1108C53.8756 52.0432 53.702 52.0094 53.517 52.0094C53.2464 52.0094 53.0096 52.0522 52.8066 52.1379C52.6081 52.2236 52.4525 52.3567 52.3397 52.5371C52.2314 52.713 52.1773 52.9386 52.1773 53.2137C52.1773 53.4618 52.2405 53.6761 52.3668 53.8565C52.4931 54.0369 52.669 54.1768 52.8945 54.276C53.1201 54.3753 53.3794 54.4249 53.6726 54.4249C53.9252 54.4249 54.144 54.3888 54.329 54.3166C54.5139 54.2444 54.6898 54.1452 54.8567 54.0189L55.1883 54.5264C55.071 54.6256 54.9244 54.7181 54.7485 54.8038C54.5725 54.885 54.3831 54.9504 54.1801 55C53.9816 55.0451 53.7809 55.0677 53.5779 55.0677ZM58.1764 55.0677C57.8291 55.0677 57.5201 54.9887 57.2495 54.8308C56.9788 54.6685 56.7645 54.4474 56.6067 54.1678C56.4533 53.8881 56.3766 53.5701 56.3766 53.2137C56.3766 52.8574 56.4556 52.5416 56.6134 52.2665C56.7758 51.9868 56.9969 51.768 57.2765 51.6101C57.5562 51.4523 57.8742 51.3733 58.2306 51.3733C58.4471 51.3733 58.6455 51.4027 58.826 51.4613C59.0109 51.5154 59.171 51.5921 59.3064 51.6913C59.4417 51.7906 59.55 51.9011 59.6311 52.0229C59.7123 52.1402 59.7574 52.2642 59.7665 52.395L59.5973 52.368V51.4478H60.2942V55H59.5973V54.1001L59.7462 54.0933C59.7281 54.2061 59.674 54.3211 59.5838 54.4384C59.4981 54.5512 59.3808 54.6549 59.2319 54.7497C59.0876 54.8444 58.9252 54.9211 58.7448 54.9797C58.5643 55.0383 58.3749 55.0677 58.1764 55.0677ZM58.3523 54.4249C58.6004 54.4249 58.8192 54.373 59.0087 54.2693C59.2026 54.1655 59.3537 54.0234 59.462 53.843C59.5703 53.658 59.6244 53.4483 59.6244 53.2137C59.6244 52.9882 59.5703 52.7852 59.462 52.6048C59.3537 52.4243 59.2026 52.2823 59.0087 52.1785C58.8192 52.0702 58.6004 52.0161 58.3523 52.0161C58.1042 52.0161 57.8855 52.0702 57.696 52.1785C57.5066 52.2823 57.3577 52.4243 57.2495 52.6048C57.1412 52.7852 57.0871 52.9882 57.0871 53.2137C57.0871 53.4483 57.1412 53.658 57.2495 53.843C57.3577 54.0234 57.5066 54.1655 57.696 54.2693C57.8855 54.373 58.1042 54.4249 58.3523 54.4249Z" fill="#5DB646"/>
<path d="M77.1337 52V40.6849H78.7663L86.5899 49.9471L86.3959 50.0926C86.342 49.8016 86.2989 49.4891 86.2666 49.1551C86.2342 48.8102 86.2019 48.4546 86.1696 48.0882C86.148 47.7111 86.1265 47.3231 86.1049 46.9244C86.0942 46.5149 86.0834 46.1 86.0726 45.6797C86.0726 45.2595 86.0726 44.8338 86.0726 44.4027V40.6849H87.8184V52H86.1534L78.443 43.0773L78.5562 42.851C78.5885 43.3251 78.6208 43.7562 78.6532 44.1441C78.6855 44.5213 78.7178 44.8661 78.7501 45.1786C78.7825 45.4911 78.804 45.7767 78.8148 46.0353C78.8363 46.2832 78.8525 46.5149 78.8633 46.7304C78.8741 46.9352 78.8795 47.1237 78.8795 47.2962V52H77.1337ZM96.0917 52.1616C95.1219 52.1616 94.2598 51.9784 93.5054 51.6121C92.7511 51.2349 92.1584 50.723 91.7274 50.0764C91.3071 49.4299 91.0969 48.6863 91.0969 47.8458C91.0969 47.1561 91.2209 46.5364 91.4687 45.9868C91.7166 45.4373 92.056 44.9631 92.4871 44.5644C92.9289 44.1657 93.4462 43.8585 94.0389 43.643C94.6316 43.4275 95.2674 43.3197 95.9463 43.3197C96.5605 43.3197 97.1317 43.4221 97.6597 43.6268C98.1985 43.8316 98.6673 44.1172 99.066 44.4836C99.4647 44.85 99.7718 45.2864 99.9874 45.7929C100.214 46.2886 100.321 46.8382 100.311 47.4416L100.294 48.2175H92.4548L92.083 46.8921H98.8559L98.6134 47.1022V46.7142C98.5703 46.3586 98.4194 46.0407 98.1608 45.7605C97.9022 45.4804 97.5789 45.2595 97.1909 45.0978C96.803 44.9362 96.3881 44.8553 95.9463 44.8553C95.2997 44.8553 94.7339 44.9577 94.249 45.1625C93.7748 45.3672 93.4031 45.6851 93.1337 46.1162C92.875 46.5364 92.7457 47.0753 92.7457 47.7326C92.7457 48.3253 92.8966 48.8372 93.1983 49.2682C93.5001 49.6993 93.9203 50.0333 94.4591 50.2704C94.998 50.5075 95.6176 50.626 96.318 50.626C96.9215 50.626 97.4442 50.5398 97.886 50.3674C98.3278 50.195 98.7481 49.9579 99.1468 49.6562L99.9389 50.8685C99.6587 51.1056 99.3085 51.3265 98.8882 51.5312C98.4679 51.7252 98.0153 51.8815 97.5304 52C97.0562 52.1078 96.5767 52.1616 96.0917 52.1616ZM103.748 55.5562V43.5137H105.429V45.4534L105.17 45.3079C105.246 44.9954 105.45 44.6937 105.784 44.4027C106.129 44.101 106.55 43.8532 107.045 43.6592C107.552 43.4652 108.08 43.3682 108.629 43.3682C109.502 43.3682 110.267 43.5568 110.925 43.934C111.582 44.3111 112.099 44.8284 112.476 45.4858C112.854 46.1431 113.042 46.8974 113.042 47.7488C113.042 48.5893 112.854 49.3437 112.476 50.0118C112.11 50.6691 111.593 51.1918 110.925 51.5797C110.267 51.9569 109.518 52.1455 108.678 52.1455C108.085 52.1455 107.525 52.0431 106.997 51.8384C106.469 51.6228 106.027 51.3588 105.671 51.0463C105.316 50.7338 105.095 50.4213 105.009 50.1088L105.429 49.8825V55.5562H103.748ZM108.403 50.6099C108.996 50.6099 109.518 50.4859 109.971 50.2381C110.424 49.9902 110.779 49.6508 111.038 49.2197C111.307 48.7887 111.442 48.2984 111.442 47.7488C111.442 47.1992 111.313 46.7142 111.054 46.294C110.795 45.8629 110.44 45.5235 109.987 45.2756C109.535 45.0278 109.007 44.9038 108.403 44.9038C107.81 44.9038 107.282 45.0278 106.819 45.2756C106.366 45.5127 106.005 45.8468 105.736 46.2778C105.477 46.7089 105.348 47.1992 105.348 47.7488C105.348 48.2984 105.477 48.7887 105.736 49.2197C106.005 49.6508 106.366 49.9902 106.819 50.2381C107.282 50.4859 107.81 50.6099 108.403 50.6099ZM119.722 52.1616C118.892 52.1616 118.154 51.9731 117.507 51.5959C116.861 51.2079 116.349 50.6799 115.972 50.0118C115.605 49.3437 115.422 48.5839 115.422 47.7326C115.422 46.8813 115.611 46.1269 115.988 45.4696C116.376 44.8015 116.904 44.2788 117.572 43.9016C118.24 43.5245 119 43.3359 119.851 43.3359C120.368 43.3359 120.843 43.4059 121.274 43.546C121.715 43.6753 122.098 43.8585 122.421 44.0956C122.745 44.3327 123.003 44.5967 123.197 44.8877C123.391 45.1679 123.499 45.4642 123.52 45.7767L123.116 45.7121V43.5137H124.781V52H123.116V49.8501L123.472 49.834C123.429 50.1034 123.3 50.3782 123.084 50.6584C122.879 50.9278 122.599 51.1756 122.243 51.4019C121.899 51.6282 121.511 51.8114 121.08 51.9515C120.649 52.0916 120.196 52.1616 119.722 52.1616ZM120.142 50.626C120.735 50.626 121.257 50.5021 121.71 50.2542C122.173 50.0064 122.534 49.6669 122.793 49.2359C123.052 48.7941 123.181 48.293 123.181 47.7326C123.181 47.1938 123.052 46.7089 122.793 46.2778C122.534 45.8468 122.173 45.5073 121.71 45.2595C121.257 45.0008 120.735 44.8715 120.142 44.8715C119.549 44.8715 119.027 45.0008 118.574 45.2595C118.122 45.5073 117.766 45.8468 117.507 46.2778C117.249 46.7089 117.119 47.1938 117.119 47.7326C117.119 48.293 117.249 48.7941 117.507 49.2359C117.766 49.6669 118.122 50.0064 118.574 50.2542C119.027 50.5021 119.549 50.626 120.142 50.626ZM128.846 52V40.0384H130.511V52H128.846Z" fill="#5DB646"/>
</svg>
